<?xml version="1.0" standalone="no"?>
<!DOCTYPE svg PUBLIC "-//W3C//DTD SVG 20010904//EN"
 "http://www.w3.org/TR/2001/REC-SVG-20010904/DTD/svg10.dtd">
<svg version="1.0" xmlns="http://www.w3.org/2000/svg"
 width="806.000000pt" height="1280.000000pt" viewBox="0 0 806.000000 1280.000000"
 preserveAspectRatio="xMidYMid meet">
<metadata>
Created by potrace 1.15, written by Peter Selinger 2001-2017
</metadata>
<g transform="translate(0.000000,1280.000000) scale(0.100000,-0.100000)"
fill="#000000" stroke="none">
<path d="M144 12768 c-214 -144 -179 -464 62 -563 l59 -25 -85 0 c-89 -1 -108
-8 -129 -48 -30 -56 24 -122 99 -122 l35 0 -3 -6005 -2 -6005 140 0 140 0 0
3789 0 3790 93 -44 c471 -220 1042 -329 1627 -311 522 15 1027 99 1918 317
1034 253 1379 322 1847 369 766 77 1411 -13 2008 -280 l107 -48 0 2217 0 2218
-95 42 c-344 151 -670 242 -1035 286 -180 22 -603 30 -805 16 -364 -26 -733
-85 -1210 -191 -202 -45 -343 -79 -855 -204 -749 -182 -1207 -264 -1647 -297
-211 -15 -675 -7 -841 15 -379 50 -740 153 -1052 300 -49 23 -52 26 -25 26 71
0 123 68 94 122 -21 40 -40 47 -129 48 l-85 0 59 25 c117 48 191 146 203 269
11 118 -41 226 -141 294 -48 32 -48 32 -176 32 -128 0 -128 0 -176 -32z"/>
</g>
</svg>
